<svg width="1200" height="630" viewBox="0 0 1200 630" xmlns="http://www.w3.org/2000/svg">
  <rect width="1200" height="630" fill="#0f1c2e"/>
  <line x1="0" y1="630" x2="630" y2="0" stroke="rgba(201,168,76,0.04)" stroke-width="60"/>
  <line x1="200" y1="630" x2="830" y2="0" stroke="rgba(201,168,76,0.03)" stroke-width="60"/>
  <line x1="400" y1="630" x2="1030" y2="0" stroke="rgba(201,168,76,0.02)" stroke-width="60"/>
  <line x1="80" y1="120" x2="1120" y2="120" stroke="rgba(201,168,76,0.3)" stroke-width="1"/>
  <line x1="80" y1="530" x2="1120" y2="530" stroke="rgba(201,168,76,0.3)" stroke-width="1"/>
  <rect x="80" y="140" width="220" height="34" rx="17" fill="rgba(201,168,76,0.12)" stroke="rgba(201,168,76,0.3)" stroke-width="1"/>
  <text x="190" y="162" text-anchor="middle" font-family="monospace" font-size="12" fill="#c9a84c" letter-spacing="2">FREE · ACCURATE · 2026</text>
  <text x="80" y="270" font-family="Georgia, serif" font-size="86" font-weight="700" fill="#e8edf4" letter-spacing="-2">RMD Calculator</text>
  <line x1="80" y1="288" x2="680" y2="288" stroke="rgba(201,168,76,0.4)" stroke-width="1.5"/>
  <text x="80" y="340" font-family="sans-serif" font-size="24" fill="#9aadc4">All rule eras — SECURE Act 1.0 &amp; 2.0 · Inherited IRA · Multi-year projection</text>
  <rect x="80" y="380" width="200" height="100" rx="6" fill="rgba(201,168,76,0.06)" stroke="rgba(201,168,76,0.2)" stroke-width="1"/>
  <text x="180" y="425" text-anchor="middle" font-family="Georgia, serif" font-size="36" font-weight="700" fill="#c9a84c">3</text>
  <text x="180" y="460" text-anchor="middle" font-family="sans-serif" font-size="13" fill="#5c7a9e">IRS Tables</text>
  <rect x="300" y="380" width="200" height="100" rx="6" fill="rgba(91,155,213,0.06)" stroke="rgba(91,155,213,0.2)" stroke-width="1"/>
  <text x="400" y="425" text-anchor="middle" font-family="Georgia, serif" font-size="36" font-weight="700" fill="#5b9bd5">10+</text>
  <text x="400" y="460" text-anchor="middle" font-family="sans-serif" font-size="13" fill="#5c7a9e">Rule Scenarios</text>
  <rect x="520" y="380" width="200" height="100" rx="6" fill="rgba(76,175,125,0.06)" stroke="rgba(76,175,125,0.2)" stroke-width="1"/>
  <text x="620" y="425" text-anchor="middle" font-family="Georgia, serif" font-size="36" font-weight="700" fill="#4caf7d">$0</text>
  <text x="620" y="460" text-anchor="middle" font-family="sans-serif" font-size="13" fill="#5c7a9e">Cost — Always Free</text>
  <text x="80" y="570" font-family="monospace" font-size="18" fill="#5c7a9e">rmd-calculator.net</text>
  <rect x="830" y="200" width="290" height="230" rx="8" fill="rgba(201,168,76,0.04)" stroke="rgba(201,168,76,0.15)" stroke-width="1"/>
  <text x="975" y="250" text-anchor="middle" font-family="monospace" font-size="11" fill="#5c7a9e">ESTIMATED RMD</text>
  <text x="975" y="310" text-anchor="middle" font-family="Georgia, serif" font-size="52" font-weight="700" fill="#c9a84c">$18,248</text>
  <line x1="860" y1="340" x2="1090" y2="340" stroke="rgba(201,168,76,0.15)" stroke-width="1"/>
  <text x="975" y="368" text-anchor="middle" font-family="sans-serif" font-size="13" fill="#5c7a9e">IRS Uniform Table · Factor 27.4</text>
  <text x="975" y="395" text-anchor="middle" font-family="sans-serif" font-size="13" fill="#5c7a9e">Age 73 · Balance $500,000</text>
</svg>
